<?xml version="1.0" standalone="no"?>
<!DOCTYPE svg PUBLIC "-//W3C//DTD SVG 20010904//EN"
 "http://www.w3.org/TR/2001/REC-SVG-20010904/DTD/svg10.dtd">
<svg version="1.0" xmlns="http://www.w3.org/2000/svg"
 width="1024.000000pt" height="1024.000000pt" viewBox="0 0 1024.000000 1024.000000"
 preserveAspectRatio="xMidYMid meet">

<g transform="translate(0.000000,1024.000000) scale(0.100000,-0.100000)"
fill="#000000" stroke="none">
<path d="M5040 8882 c-36 -10 -88 -31 -117 -47 -30 -18 -165 -141 -328 -300
-152 -148 -284 -274 -293 -280 -10 -6 -172 -10 -417 -10 -390 0 -401 -1 -440
-22 -51 -27 -79 -57 -104 -113 -19 -40 -21 -65 -21 -247 l0 -201 -347 -4
c-382 -5 -406 -8 -558 -77 -203 -92 -377 -283 -455 -498 -106 -295 -68 -590
111 -857 l49 -74 0 -1085 0 -1084 -58 -5 c-117 -11 -199 -67 -246 -167 -20
-44 -21 -60 -21 -446 0 -393 1 -401 23 -465 86 -239 279 -394 535 -429 51 -7
404 -11 1012 -11 l934 0 -45 -131 c-72 -211 -144 -329 -200 -329 -14 0 -39 -6
-57 -14 -134 -57 -136 -266 -3 -327 39 -18 89 -19 1110 -19 1052 0 1070 0
1110 20 62 31 80 62 85 149 4 93 -8 132 -75 249 -30 51 -67 123 -83 160 -31
70 -101 244 -101 249 0 2 30 3 66 3 58 0 65 2 60 18 -3 9 -19 84 -35 165 -16
82 -31 151 -34 154 -3 3 -76 4 -163 4 -170 -2 -206 -10 -258 -59 -37 -35 -56
-81 -56 -135 0 -62 60 -264 135 -453 36 -90 65 -166 65 -169 0 -3 -290 -5
-645 -5 -355 0 -645 2 -645 4 0 2 16 42 36 88 71 164 176 481 177 533 1 53
-25 115 -60 147 -55 50 -13 48 -1201 48 -1230 0 -1170 -3 -1251 66 -94 81
-121 160 -121 351 l0 134 1940 -3 c1568 -2 1940 -1 1940 10 0 14 -60 315 -63
319 -1 1 -749 3 -1662 5 -913 2 -1666 7 -1672 11 -10 6 -13 254 -13 1182 l0
1174 506 503 c278 277 515 518 526 536 20 32 21 47 20 370 0 198 4 351 10 370
17 57 41 62 277 62 l209 0 25 -30 c14 -16 28 -44 32 -62 11 -50 32 -68 80 -68
40 0 47 4 120 82 42 45 217 225 388 399 340 344 334 339 431 324 38 -6 77 -43
576 -543 762 -764 1812 -1831 1841 -1870 l24 -34 0 -746 0 -747 230 -167 c127
-93 233 -168 238 -168 4 0 7 418 7 928 l0 929 45 57 c68 88 113 167 146 256
120 329 51 686 -180 932 -90 96 -171 155 -284 208 -155 73 -152 73 -729 79
l-517 6 -573 571 c-479 476 -583 575 -634 602 -119 62 -231 76 -354 44z
m-1795 -1664 c-105 -108 -481 -493 -667 -682 l-148 -150 -34 33 c-19 18 -48
61 -65 95 -133 265 -39 590 208 720 117 61 142 65 481 65 l305 1 -80 -82z
m4359 67 c96 -25 189 -80 256 -152 66 -70 99 -128 125 -217 24 -82 17 -258
-13 -341 -20 -54 -99 -185 -112 -185 -3 0 -210 205 -460 455 l-455 455 300 0
c238 0 313 -3 359 -15z"/>
<path d="M5022 7679 c-69 -12 -196 -61 -257 -100 -164 -104 -290 -276 -340
-464 -23 -85 -30 -249 -15 -342 45 -288 270 -544 535 -613 196 -51 388 -35
555 47 79 39 109 61 182 134 49 48 88 94 88 101 0 13 -104 99 -457 378 l-133
105 0 268 0 267 35 0 c102 0 263 -66 353 -146 104 -92 178 -235 189 -366 l6
-68 110 0 110 0 -7 81 c-28 334 -219 582 -534 692 -79 28 -100 31 -227 33 -77
2 -164 -1 -193 -7z"/>
<path d="M6075 6271 c-170 -44 -260 -205 -211 -376 45 -153 238 -241 388 -177
110 48 171 143 171 267 1 116 -56 211 -156 259 -56 27 -144 39 -192 27z"/>
<path d="M4152 6139 c-26 -13 -55 -39 -70 -62 -23 -35 -27 -51 -27 -114 l0
-72 -74 -75 -74 -74 -52 5 c-74 8 -120 -3 -160 -38 -98 -86 -79 -244 37 -309
88 -50 200 -16 254 75 22 38 25 54 22 105 l-3 60 78 80 c71 72 80 78 103 70
75 -29 189 19 228 95 85 163 -95 337 -262 254z"/>
<path d="M2893 5970 c-18 -10 -40 -34 -50 -52 -17 -31 -18 -90 -21 -911 -2
-579 1 -891 8 -916 14 -52 46 -90 94 -112 39 -18 101 -19 1494 -19 1410 0
1452 1 1452 19 0 10 -11 73 -25 141 -14 68 -25 124 -25 126 0 2 -45 4 -100 4
l-100 0 -2 771 -3 771 -28 24 c-27 23 -35 24 -163 24 l-136 0 -29 -29 -29 -29
0 -329 c-1 -180 -3 -524 -6 -763 l-6 -435 -114 -3 -114 -3 0 596 c0 638 0 638
-49 665 -11 5 -81 10 -156 10 -131 0 -137 -1 -160 -25 l-25 -24 -2 -453 c-1
-249 -2 -523 -3 -608 l-2 -155 -112 -3 -111 -3 0 383 c0 331 -2 387 -16 406
-30 43 -60 50 -193 46 -134 -4 -164 -14 -181 -60 -6 -14 -10 -184 -10 -395 l0
-369 -115 0 -115 0 0 301 0 301 -34 34 -34 34 -133 0 c-208 -1 -199 15 -199
-377 l0 -303 -115 0 -115 0 0 813 c0 771 -1 814 -19 847 -39 75 -130 102 -198
60z"/>
<path d="M6693 5961 c-51 -32 -56 -68 -49 -366 l5 -260 33 -26 c67 -54 349
-260 362 -265 9 -3 13 2 11 18 -1 13 -3 209 -4 435 l-1 413 -29 32 -29 33
-134 3 c-118 2 -136 1 -165 -17z"/>
<path d="M6112 5209 c-71 -35 -122 -120 -122 -202 0 -24 11 -100 24 -168 14
-68 41 -212 61 -319 20 -107 84 -442 142 -745 157 -822 247 -1313 373 -2026
20 -117 34 -151 77 -190 89 -83 215 -78 300 12 17 19 109 162 203 319 95 157
175 289 180 293 4 5 23 -13 41 -40 117 -171 261 -257 449 -270 162 -10 294 41
416 162 77 76 125 160 145 255 17 78 7 233 -19 301 -22 54 -37 82 -137 242
-26 42 -46 79 -43 82 3 3 123 30 268 60 167 34 280 63 309 78 86 44 130 145
101 232 -18 56 -69 106 -204 203 -113 80 -688 501 -891 652 -79 58 -573 422
-945 695 -69 50 -203 149 -298 219 -96 70 -197 138 -225 152 -67 31 -146 32
-205 3z m375 -466 c352 -257 498 -365 942 -693 249 -184 491 -363 538 -397
373 -272 505 -377 486 -384 -10 -4 -118 -26 -239 -49 -120 -24 -243 -49 -273
-57 -66 -18 -107 -56 -117 -109 -9 -48 10 -86 154 -302 139 -209 157 -249 157
-342 0 -85 -20 -133 -77 -186 -50 -48 -96 -67 -174 -72 -156 -10 -214 29 -361
244 -44 65 -92 129 -105 142 -35 32 -84 44 -127 32 -65 -19 -58 -9 -266 -365
-174 -297 -163 -280 -170 -273 -4 4 -105 529 -160 833 -35 196 -143 762 -235
1230 -33 165 -75 390 -95 500 -20 110 -42 232 -50 272 -16 78 -18 103 -9 103
3 0 85 -57 181 -127z"/>
<path d="M5107 3186 c-98 -27 -164 -125 -155 -230 6 -73 40 -123 108 -160 104
-57 218 -32 283 60 117 167 -39 385 -236 330z"/>
</g>
</svg>
